#!OML:ASF H:\ManfredETheater\Project 1\Capture day 1\Session 1\subject.ASF
:FULLY-SPECIFIED
:DEGREES
369
root -7.66143 9.89584 7.75205 52.2265 79.0198 41.9287
lowerback 56.6312 -6.73788 -1.7051
upperback 9.95201 -6.14503 2.24969
thorax -9.68229 -1.98778 5.85872
lowerneck 5.31066 -18.3595 -15.8476
upperneck -20.6234 -23.5118 28.3709
head -1.20561 -12.9274 10.8652
rclavicle 6.12257e-014 -1.0635e-014
rhumerus -30.2203 -3.6705 -68.1826
rradius 95.7663
rwrist -17.1927
rhand -28.8724 -8.20362
rfingers 7.12502
rthumb -2.22845 -38.1717
lclavicle 6.12257e-014 -1.0635e-014
lhumerus -27.2533 20.3821 54.7575
lradius 104.944
lwrist 1.09825
lhand -16.7543 -5.36997
lfingers 7.12502
lthumb 9.47241 24.3971
rfemur -95.097 -44.8013 16.873
rtibia 128.68
rfoot -31.4777 -12.0428
rtoes -33.2265
lfemur -69.0406 31.8271 10.2372
ltibia 100.93
lfoot -25.0825 -12.4291
ltoes -33.6731
370
root -7.62263 9.98467 7.82879 50.5718 78.2793 40.0528
lowerback 55.9522 -6.59105 -1.71712
upperback 9.78496 -6.08523 2.2524
thorax -9.82868 -1.98405 5.8452
lowerneck 5.12324 -18.3447 -15.7806
upperneck -20.9671 -23.4105 28.2909
head -1.31553 -12.8666 10.8571
rclavicle -2.23633e-014 8.16508e-014
rhumerus -30.6133 -3.66006 -68.6212
rradius 95.5221
rwrist -17.133
rhand -28.7061 -8.18019
rfingers 7.12502
rthumb -2.06788 -38.1499
lclavicle -2.23633e-014 8.16508e-014
lhumerus -27.7791 21.0029 56.4551
lradius 104.83
lwrist 0.736473
lhand -17.084 -5.65108
lfingers 7.12502
lthumb 9.15427 24.1302
rfemur -94.9794 -43.9261 17.2085
rtibia 128.32
rfoot -31.5113 -12.1886
rtoes -33.3431
lfemur -67.5353 31.222 10.6929
ltibia 99.9959
lfoot -25.0207 -11.6068
ltoes -33.9725
371
root -7.58006 10.074 7.90301 49.0719 77.5096 38.3432
lowerback 55.2181 -6.45129 -1.71467
upperback 9.61369 -6.02768 2.25267
thorax -9.97094 -1.98216 5.82257
lowerneck 4.91927 -18.3333 -15.7136
upperneck -21.3153 -23.3099 28.2209
head -1.42226 -12.8059 10.8502
rclavicle -7.25564e-015 4.0403e-014
rhumerus -31.0342 -3.68154 -69.0598
rradius 95.241
rwrist -16.984
rhand -28.527 -8.14369
rfingers 7.12502
rthumb -1.89485 -38.115
lclavicle -7.25564e-015 4.0403e-014
lhumerus -28.2968 21.62 58.1869
lradius 104.667
lwrist 0.410427
lhand -17.4944 -5.95024
lfingers 7.12502
lthumb 8.75825 23.848
rfemur -94.8501 -43.1191 17.548
rtibia 127.941
rfoot -31.5473 -12.3058
rtoes -33.5
lfemur -65.9947 30.5917 11.1532
ltibia 99.0447
lfoot -24.9568 -10.8837
ltoes -34.3283
372
root -7.53384 10.1641 7.97631 47.6578 76.6926 36.7314
lowerback 54.4376 -6.28179 -1.73415
upperback 9.43992 -5.94783 2.25948
thorax -10.1056 -1.97179 5.80618
lowerneck 4.71649 -18.3271 -15.6371
upperneck -21.6973 -23.2092 28.1714
head -1.53662 -12.7481 10.8512
rclavicle 9.46712e-015 -1.46604e-015
rhumerus -31.4856 -3.73432 -69.4638
rradius 94.9336
rwrist -16.7916
rhand -28.3861 -8.08051
rfingers 7.12502
rthumb -1.75882 -38.053
lclavicle 9.46712e-015 -1.46604e-015
lhumerus -28.7888 22.2179 59.9523
lradius 104.446
lwrist 0.133572
lhand -17.9878 -6.24051
lfingers 7.12502
lthumb 8.2821 23.5771
rfemur -94.6932 -42.3435 17.8682
rtibia 127.547
rfoot -31.5838 -12.3805
rtoes -33.6939
lfemur -64.3943 29.9618 11.6188
ltibia 98.0649
lfoot -24.8865 -10.2658
ltoes -34.7683
373
root -7.48397 10.2546 8.04904 46.3694 75.8298 35.2437
lowerback 53.595 -6.09272 -1.77077
upperback 9.2639 -5.85593 2.26398
thorax -10.2296 -1.95717 5.78834
lowerneck 4.5207 -18.308 -15.5147
upperneck -22.1163 -23.0815 28.1122
head -1.67576 -12.6799 10.8533
rclavicle 9.05961e-014 -1.33683e-014
rhumerus -31.9669 -3.81335 -69.8543
rradius 94.6024
rwrist -16.5524
rhand -28.2793 -8.01374
rfingers 7.12502
rthumb -1.65564 -37.9871
lclavicle 9.05961e-014 -1.33683e-014
lhumerus -29.2571 22.8076 61.7296
lradius 104.159
lwrist -0.073795
lhand -18.5323 -6.5461
lfingers 7.12502
lthumb 7.75658 23.2916
rfemur -94.5322 -41.6097 18.1689
rtibia 127.144
rfoot -31.6104 -12.397
rtoes -33.9428
lfemur -62.7613 29.3437 12.0688
ltibia 97.0538
lfoot -24.7954 -9.75419
ltoes -35.2778
374
root -7.43071 10.3465 8.12221 45.1829 74.911 33.8642
lowerback 52.7112 -5.87175 -1.84094
upperback 9.08323 -5.74401 2.26705
thorax -10.3457 -1.93415 5.77452
lowerneck 4.29888 -18.2817 -15.3693
upperneck -22.5321 -22.9389 28.0362
head -1.81852 -12.6028 10.8475
rclavicle 1.16289e-014 -2.88238e-014
rhumerus -32.4759 -3.91371 -70.2284
rradius 94.2501
rwrist -16.292
rhand -28.23 -7.94981
rfingers 7.12502
rthumb -1.60803 -37.9235
lclavicle 1.16289e-014 -2.88238e-014
lhumerus -29.7017 23.3666 63.4991
lradius 103.806
lwrist -0.1844
lhand -19.1247 -6.85886
lfingers 7.12502
lthumb 7.18483 22.9992
rfemur -94.3386 -40.8966 18.4223
rtibia 126.728
rfoot -31.6236 -12.352
rtoes -34.2474
lfemur -61.0726 28.7405 12.4961
ltibia 96.0004
lfoot -24.6752 -9.34729
ltoes -35.8407
375
root -7.3742 10.4402 8.19677 44.0983 73.9396 32.5971
lowerback 51.8071 -5.65975 -1.90463
upperback 8.8855 -5.64608 2.21841
thorax -10.473 -1.91493 5.70722
lowerneck 4.05266 -18.2552 -15.22
upperneck -22.9189 -22.7909 28.0048
head -1.94297 -12.5251 10.8491
rclavicle 4.96962e-015 4.64162e-014
rhumerus -33.0292 -4.02926 -70.6518
rradius 93.8865
rwrist -16.0517
rhand -28.2368 -7.9113
rfingers 7.12502
rthumb -1.61459 -37.8849
lclavicle 4.96962e-015 4.64162e-014
lhumerus -30.1384 23.8674 65.1656
lradius 103.372
lwrist -0.190292
lhand -19.7692 -7.17802
lfingers 7.12502
lthumb 6.56267 22.7003
rfemur -94.0991 -40.2001 18.6225
rtibia 126.299
rfoot -31.6198 -12.2484
rtoes -34.5921
lfemur -59.3235 28.1436 12.895
ltibia 94.8969
lfoot -24.5199 -9.03049
ltoes -36.4491
